<?xml version="1.0" standalone="no"?>
<!DOCTYPE svg PUBLIC "-//W3C//DTD SVG 20010904//EN"
 "http://www.w3.org/TR/2001/REC-SVG-20010904/DTD/svg10.dtd">
<svg version="1.0" xmlns="http://www.w3.org/2000/svg"
 width="1024.000000pt" height="1024.000000pt" viewBox="0 0 1024.000000 1024.000000"
 preserveAspectRatio="xMidYMid meet">
<metadata>
Created by potrace 1.14, written by Peter Selinger 2001-2017
</metadata>
<g transform="translate(0.000000,1024.000000) scale(0.100000,-0.100000)"
fill="#000000" stroke="none">
<path d="M4839 8966 c-2 -2 -44 -7 -94 -10 -98 -8 -235 -23 -275 -31 -14 -3
-41 -8 -60 -11 -155 -24 -437 -91 -510 -121 -8 -3 -18 -6 -22 -5 -7 2 -111
-33 -143 -47 -11 -5 -36 -15 -55 -22 -241 -87 -519 -227 -749 -377 -47 -31
-88 -59 -91 -62 -3 -3 -30 -24 -60 -47 -30 -23 -67 -53 -81 -65 -15 -13 -44
-36 -65 -53 -143 -112 -440 -429 -544 -581 -8 -12 -40 -57 -70 -100 -30 -43
-55 -80 -55 -83 0 -3 -6 -14 -14 -23 -20 -23 -128 -206 -141 -238 -5 -14 -14
-32 -20 -40 -18 -28 -100 -201 -100 -211 0 -5 -6 -20 -14 -32 -58 -91 -219
-632 -250 -839 -3 -21 -8 -55 -11 -75 -3 -21 -8 -44 -11 -52 -8 -24 -18 -273
-18 -446 0 -313 17 -552 49 -705 3 -14 8 -43 11 -65 5 -37 28 -174 40 -235 4
-20 50 -201 68 -270 17 -63 107 -345 119 -372 8 -18 29 -73 48 -123 40 -110
102 -235 188 -380 69 -119 182 -291 209 -321 10 -11 33 -39 52 -64 19 -25 39
-50 45 -56 5 -6 26 -30 45 -53 19 -23 44 -52 55 -65 11 -12 34 -38 50 -57 40
-44 262 -248 349 -319 37 -30 93 -79 125 -107 32 -29 76 -65 98 -80 22 -16 60
-43 84 -61 129 -98 284 -195 448 -278 101 -52 190 -94 197 -94 8 0 24 -5 37
-12 51 -26 57 -28 57 -17 0 6 7 3 16 -5 8 -9 20 -14 24 -11 5 3 25 -1 45 -9
19 -8 38 -15 40 -15 22 0 82 -16 93 -24 6 -5 12 -7 12 -4 0 3 23 -1 52 -10 29
-8 75 -17 103 -19 27 -1 50 -4 50 -4 0 -9 102 -5 107 4 6 8 8 8 8 0 0 -8 36
-13 113 -14 150 -3 209 -7 229 -15 9 -4 21 -4 27 -1 5 4 12 2 16 -3 3 -5 13
-10 23 -9 9 0 31 -5 49 -10 17 -6 34 -8 37 -4 3 3 6 0 6 -7 0 -8 8 -11 20 -8
11 3 23 1 26 -5 3 -5 12 -7 19 -4 8 3 15 1 17 -5 2 -5 13 -11 25 -13 12 -3 30
-9 41 -15 11 -6 22 -7 26 -4 3 3 6 0 6 -7 0 -7 3 -11 6 -7 3 3 18 1 33 -5 39
-16 95 -22 211 -21 91 0 285 9 285 13 0 1 23 3 50 5 28 2 64 7 80 10 17 4 37
7 45 7 8 0 42 4 75 10 33 5 72 12 87 13 57 8 153 27 163 33 5 3 16 7 25 8 27
4 74 15 115 26 22 7 42 12 45 13 47 13 296 102 345 124 88 40 176 84 180 91 3
5 19 11 35 15 17 4 30 11 30 16 0 5 7 9 15 9 8 0 15 5 15 12 0 6 3 9 6 5 4 -3
21 4 38 17 17 13 51 34 76 47 25 13 47 26 50 30 3 3 22 16 44 29 21 12 50 33
65 46 41 37 46 40 72 54 13 7 28 19 32 26 4 8 13 14 18 14 6 0 17 6 24 13 8 6
20 17 27 22 7 6 36 28 63 50 28 22 71 60 97 85 25 25 141 137 257 250 116 113
211 208 211 212 0 4 12 20 28 36 15 16 36 42 47 57 11 15 40 49 65 76 63 69
68 74 92 116 13 21 27 43 33 50 5 7 16 19 23 28 7 8 9 15 5 15 -4 0 -3 4 2 8
25 17 142 222 128 222 -5 0 -3 4 3 8 12 8 66 122 58 122 -3 0 2 7 10 16 9 8
16 24 16 35 0 10 5 19 10 19 6 0 10 11 10 25 0 14 4 25 10 25 5 0 9 3 8 8 -2
6 14 55 39 122 4 8 7 17 8 20 1 3 4 12 8 20 8 22 48 149 51 163 2 7 6 19 9 27
38 102 128 448 147 570 7 41 14 82 15 90 33 186 40 306 40 650 0 287 -6 445
-19 540 -3 19 -8 55 -11 80 -9 66 -15 102 -20 111 -3 4 -12 40 -20 81 -8 40
-21 96 -29 123 -123 434 -256 729 -494 1095 -89 136 -226 321 -244 328 -4 2
-8 8 -8 13 0 5 -8 17 -17 27 -10 10 -40 45 -68 77 -134 156 -273 285 -538 501
-9 8 -21 14 -26 14 -5 0 -14 6 -20 14 -7 8 -51 40 -99 72 -48 32 -88 62 -90
66 -2 5 -10 8 -18 8 -8 0 -14 5 -14 10 0 6 -5 10 -11 10 -6 0 -59 28 -117 62
-92 53 -257 140 -272 143 -3 0 -27 11 -55 24 -92 42 -320 130 -376 145 -30 7
-77 22 -105 31 -27 9 -53 18 -59 19 -5 2 -28 8 -50 14 -72 20 -373 77 -392 74
-2 -1 -16 3 -33 8 -17 5 -72 12 -123 16 -51 3 -101 9 -112 11 -23 6 -490 14
-496 9z m503 -3296 c-2 -16 -8 -28 -12 -25 -5 3 -11 -1 -13 -7 -3 -8 -6 -6 -6
5 -1 10 -5 15 -11 12 -5 -3 -10 -1 -10 5 0 7 7 10 15 6 9 -3 19 3 25 14 15 27
17 25 12 -10z m-72 -47 c0 -14 -3 -24 -6 -20 -3 3 -14 -3 -25 -14 -11 -11 -24
-17 -29 -14 -6 4 -10 1 -10 -4 0 -6 -6 -11 -14 -11 -8 0 -16 -5 -18 -10 -4
-14 -46 -21 -54 -9 -3 5 -2 9 3 8 23 -4 41 3 39 15 0 8 2 14 6 13 4 -1 14 7
23 18 9 11 14 13 10 5 -4 -8 1 -6 9 4 9 11 16 17 16 13 0 -4 10 1 22 13 28 25
28 25 28 -7z"/>
</g>
</svg>
